<?xml version="1.0" encoding="UTF-8" standalone="no"?>
<!-- Created with Inkscape (http://www.inkscape.org/) -->

<svg
   xmlns:dc="http://purl.org/dc/elements/1.1/"
   xmlns:cc="http://creativecommons.org/ns#"
   xmlns:rdf="http://www.w3.org/1999/02/22-rdf-syntax-ns#"
   xmlns:svg="http://www.w3.org/2000/svg"
   xmlns="http://www.w3.org/2000/svg"
   xmlns:sodipodi="http://sodipodi.sourceforge.net/DTD/sodipodi-0.dtd"
   xmlns:inkscape="http://www.inkscape.org/namespaces/inkscape"
   width="128"
   height="128"
   id="svg2"
   version="1.1"
   inkscape:version="0.47pre4 r22446"
   sodipodi:docname="New document 1">
  <defs
     id="defs4">
    <inkscape:perspective
       sodipodi:type="inkscape:persp3d"
       inkscape:vp_x="0 : 526.18109 : 1"
       inkscape:vp_y="0 : 1000 : 0"
       inkscape:vp_z="744.09448 : 526.18109 : 1"
       inkscape:persp3d-origin="372.04724 : 350.78739 : 1"
       id="perspective10" />
  </defs>
  <sodipodi:namedview
     id="base"
     pagecolor="#ffffff"
     bordercolor="#666666"
     borderopacity="1.0"
     inkscape:pageopacity="0.0"
     inkscape:pageshadow="2"
     inkscape:zoom="0.98994949"
     inkscape:cx="51.651253"
     inkscape:cy="59.080421"
     inkscape:document-units="px"
     inkscape:current-layer="layer1"
     showgrid="false"
     showborder="false"
     inkscape:showpageshadow="false"
     inkscape:window-width="1109"
     inkscape:window-height="735"
     inkscape:window-x="26"
     inkscape:window-y="178"
     inkscape:window-maximized="0" />
  <metadata
     id="metadata7">
    <rdf:RDF>
      <cc:Work
         rdf:about="">
        <dc:format>image/svg+xml</dc:format>
        <dc:type
           rdf:resource="http://purl.org/dc/dcmitype/StillImage" />
        <dc:title></dc:title>
      </cc:Work>
    </rdf:RDF>
  </metadata>
  <g
     inkscape:label="Layer 1"
     inkscape:groupmode="layer"
     id="layer1"
     transform="translate(0,-924.36218)">
    <rect
       style="opacity:1;fill:#000000;fill-opacity:0.60784316;stroke:none;stroke-width:0.50000000000000000;stroke-linecap:round;stroke-linejoin:round;stroke-miterlimit:4;stroke-opacity:1;stroke-dasharray:none"
       id="rect2818"
       width="120"
       height="120"
       x="4"
       y="928.36218"
       rx="22.223356"
       ry="22.223356" />
    <path
       style="fill:#ffffff;fill-opacity:1;stroke:none"
       d="M 72.4375 21.46875 C 63.712431 21.46875 54.969504 24.811746 48.3125 31.46875 C 36.906866 42.874384 35.301536 60.322792 43.4375 73.46875 L 23.5625 93.375 C 20.7925 96.145 20.7925 100.605 23.5625 103.375 L 24.625 104.4375 C 27.395 107.2075 31.855 107.2075 34.625 104.4375 L 54.53125 84.5625 C 67.677208 92.698464 85.125616 91.093134 96.53125 79.6875 C 109.84526 66.373493 109.84526 44.782757 96.53125 31.46875 C 89.874246 24.811746 81.162569 21.46875 72.4375 21.46875 z M 72.4375 32.53125 C 78.329143 32.53125 84.223578 34.786078 88.71875 39.28125 C 97.709095 48.271595 97.709095 62.853405 88.71875 71.84375 C 79.728405 80.834095 65.146595 80.834095 56.15625 71.84375 C 47.165905 62.853405 47.165905 48.271595 56.15625 39.28125 C 60.651422 34.786078 66.545857 32.53125 72.4375 32.53125 z "
       transform="translate(0,924.36218)"
       id="path3592" />
  </g>
</svg>
